<mxfile host="app.diagrams.net" agent="Mozilla/5.0 (Windows NT 10.0; Win64; x64) AppleWebKit/537.36 (KHTML, like Gecko) Chrome/134.0.0.0 Safari/537.36" version="26.1.3">
  <diagram name="Strona-1" id="LQ4VG8m_RFCZVLptEWKu">
    <mxGraphModel dx="1434" dy="780" grid="1" gridSize="10" guides="1" tooltips="1" connect="1" arrows="1" fold="1" page="1" pageScale="1" pageWidth="827" pageHeight="1169" math="0" shadow="0">
      <root>
        <mxCell id="0" />
        <mxCell id="1" parent="0" />
        <mxCell id="xXbaBgO_mFCdwXO0WdjM-1" value="Pracownik&lt;div&gt;&lt;br&gt;&lt;/div&gt;" style="shape=umlActor;verticalLabelPosition=bottom;verticalAlign=top;html=1;" vertex="1" parent="1">
          <mxGeometry x="310" y="860" width="30" height="60" as="geometry" />
        </mxCell>
        <mxCell id="xXbaBgO_mFCdwXO0WdjM-2" value="Interfejs pracownika" style="shape=umlBoundary;whiteSpace=wrap;html=1;" vertex="1" parent="1">
          <mxGeometry x="410" y="770" width="102" height="80" as="geometry" />
        </mxCell>
        <mxCell id="xXbaBgO_mFCdwXO0WdjM-3" value="Nadawca" style="shape=umlActor;verticalLabelPosition=bottom;verticalAlign=top;html=1;" vertex="1" parent="1">
          <mxGeometry x="100" y="40" width="30" height="60" as="geometry" />
        </mxCell>
        <mxCell id="xXbaBgO_mFCdwXO0WdjM-4" value="Formularz logowania" style="shape=umlBoundary;whiteSpace=wrap;html=1;" vertex="1" parent="1">
          <mxGeometry x="190" y="20" width="100" height="80" as="geometry" />
        </mxCell>
        <mxCell id="xXbaBgO_mFCdwXO0WdjM-6" value="Logowanie" style="ellipse;shape=umlControl;whiteSpace=wrap;html=1;" vertex="1" parent="1">
          <mxGeometry x="240" y="150" width="70" height="80" as="geometry" />
        </mxCell>
        <mxCell id="xXbaBgO_mFCdwXO0WdjM-7" style="edgeStyle=orthogonalEdgeStyle;rounded=0;orthogonalLoop=1;jettySize=auto;html=1;exitX=1;exitY=1;exitDx=0;exitDy=0;exitPerimeter=0;entryX=0.02;entryY=0.513;entryDx=0;entryDy=0;entryPerimeter=0;" edge="1" parent="1" source="xXbaBgO_mFCdwXO0WdjM-3" target="xXbaBgO_mFCdwXO0WdjM-4">
          <mxGeometry relative="1" as="geometry" />
        </mxCell>
        <mxCell id="xXbaBgO_mFCdwXO0WdjM-8" value="Baza danych" style="ellipse;shape=umlEntity;whiteSpace=wrap;html=1;" vertex="1" parent="1">
          <mxGeometry x="369" y="490" width="80" height="80" as="geometry" />
        </mxCell>
        <mxCell id="xXbaBgO_mFCdwXO0WdjM-9" style="edgeStyle=none;rounded=0;orthogonalLoop=1;jettySize=auto;html=1;exitX=0;exitY=0;exitDx=0;exitDy=0;" edge="1" parent="1">
          <mxGeometry relative="1" as="geometry">
            <mxPoint x="631.7157287525379" y="151.71572875253787" as="sourcePoint" />
            <mxPoint x="631.7157287525379" y="151.71572875253787" as="targetPoint" />
          </mxGeometry>
        </mxCell>
        <mxCell id="xXbaBgO_mFCdwXO0WdjM-10" value="Zarejestruj przesyłkę" style="ellipse;shape=umlControl;whiteSpace=wrap;html=1;" vertex="1" parent="1">
          <mxGeometry x="240" y="600" width="70" height="80" as="geometry" />
        </mxCell>
        <mxCell id="xXbaBgO_mFCdwXO0WdjM-11" value="" style="endArrow=classic;html=1;rounded=0;entryX=0.01;entryY=0.413;entryDx=0;entryDy=0;exitX=0.771;exitY=0.9;exitDx=0;exitDy=0;exitPerimeter=0;entryPerimeter=0;" edge="1" parent="1" source="xXbaBgO_mFCdwXO0WdjM-10" target="xXbaBgO_mFCdwXO0WdjM-2">
          <mxGeometry width="50" height="50" relative="1" as="geometry">
            <mxPoint x="470" y="490" as="sourcePoint" />
            <mxPoint x="550" y="380" as="targetPoint" />
          </mxGeometry>
        </mxCell>
        <mxCell id="xXbaBgO_mFCdwXO0WdjM-12" value="" style="endArrow=classic;html=1;rounded=0;exitX=0.82;exitY=0.925;exitDx=0;exitDy=0;exitPerimeter=0;entryX=0.329;entryY=0.175;entryDx=0;entryDy=0;entryPerimeter=0;" edge="1" parent="1" source="xXbaBgO_mFCdwXO0WdjM-4" target="xXbaBgO_mFCdwXO0WdjM-6">
          <mxGeometry width="50" height="50" relative="1" as="geometry">
            <mxPoint x="410" y="380" as="sourcePoint" />
            <mxPoint x="460" y="330" as="targetPoint" />
          </mxGeometry>
        </mxCell>
        <mxCell id="xXbaBgO_mFCdwXO0WdjM-13" value="Śledzenie przesyłek" style="shape=umlBoundary;whiteSpace=wrap;html=1;" vertex="1" parent="1">
          <mxGeometry x="180" y="320" width="100" height="80" as="geometry" />
        </mxCell>
        <mxCell id="xXbaBgO_mFCdwXO0WdjM-14" value="" style="endArrow=classic;html=1;rounded=0;entryX=0.94;entryY=0.3;entryDx=0;entryDy=0;entryPerimeter=0;exitX=0.271;exitY=0.988;exitDx=0;exitDy=0;exitPerimeter=0;" edge="1" parent="1" source="xXbaBgO_mFCdwXO0WdjM-6" target="xXbaBgO_mFCdwXO0WdjM-13">
          <mxGeometry width="50" height="50" relative="1" as="geometry">
            <mxPoint x="240" y="220" as="sourcePoint" />
            <mxPoint x="460" y="330" as="targetPoint" />
          </mxGeometry>
        </mxCell>
        <mxCell id="xXbaBgO_mFCdwXO0WdjM-15" value="" style="endArrow=classic;html=1;rounded=0;exitX=-0.02;exitY=0.538;exitDx=0;exitDy=0;exitPerimeter=0;entryX=0;entryY=1;entryDx=0;entryDy=0;entryPerimeter=0;" edge="1" parent="1" source="xXbaBgO_mFCdwXO0WdjM-13" target="xXbaBgO_mFCdwXO0WdjM-3">
          <mxGeometry width="50" height="50" relative="1" as="geometry">
            <mxPoint x="410" y="380" as="sourcePoint" />
            <mxPoint x="90" y="130" as="targetPoint" />
          </mxGeometry>
        </mxCell>
        <mxCell id="xXbaBgO_mFCdwXO0WdjM-16" style="edgeStyle=none;rounded=0;orthogonalLoop=1;jettySize=auto;html=1;exitX=0.75;exitY=0.1;exitDx=0;exitDy=0;exitPerimeter=0;entryX=-0.02;entryY=0.513;entryDx=0;entryDy=0;entryPerimeter=0;" edge="1" parent="1" source="xXbaBgO_mFCdwXO0WdjM-1" target="xXbaBgO_mFCdwXO0WdjM-2">
          <mxGeometry relative="1" as="geometry" />
        </mxCell>
        <mxCell id="xXbaBgO_mFCdwXO0WdjM-17" value="" style="endArrow=classic;html=1;rounded=0;exitX=0.5;exitY=1;exitDx=0;exitDy=0;entryX=0.329;entryY=0.138;entryDx=0;entryDy=0;entryPerimeter=0;" edge="1" parent="1" source="xXbaBgO_mFCdwXO0WdjM-8" target="xXbaBgO_mFCdwXO0WdjM-18">
          <mxGeometry width="50" height="50" relative="1" as="geometry">
            <mxPoint x="410" y="780" as="sourcePoint" />
            <mxPoint x="670" y="590" as="targetPoint" />
          </mxGeometry>
        </mxCell>
        <mxCell id="xXbaBgO_mFCdwXO0WdjM-18" value="Zarządzaj nadaniem" style="ellipse;shape=umlControl;whiteSpace=wrap;html=1;" vertex="1" parent="1">
          <mxGeometry x="400" y="610" width="70" height="80" as="geometry" />
        </mxCell>
        <mxCell id="xXbaBgO_mFCdwXO0WdjM-19" value="" style="endArrow=classic;html=1;rounded=0;entryX=0.353;entryY=0.1;entryDx=0;entryDy=0;entryPerimeter=0;exitX=0.743;exitY=1;exitDx=0;exitDy=0;exitPerimeter=0;" edge="1" parent="1" source="xXbaBgO_mFCdwXO0WdjM-18" target="xXbaBgO_mFCdwXO0WdjM-2">
          <mxGeometry width="50" height="50" relative="1" as="geometry">
            <mxPoint x="410" y="580" as="sourcePoint" />
            <mxPoint x="460" y="530" as="targetPoint" />
          </mxGeometry>
        </mxCell>
        <mxCell id="xXbaBgO_mFCdwXO0WdjM-20" value="Zlokalizuj przesyłkę" style="ellipse;shape=umlControl;whiteSpace=wrap;html=1;" vertex="1" parent="1">
          <mxGeometry x="250" y="430" width="70" height="80" as="geometry" />
        </mxCell>
        <mxCell id="xXbaBgO_mFCdwXO0WdjM-21" style="edgeStyle=none;rounded=0;orthogonalLoop=1;jettySize=auto;html=1;exitX=0;exitY=0.5;exitDx=0;exitDy=0;entryX=0.914;entryY=0.85;entryDx=0;entryDy=0;entryPerimeter=0;" edge="1" parent="1" source="xXbaBgO_mFCdwXO0WdjM-8" target="xXbaBgO_mFCdwXO0WdjM-20">
          <mxGeometry relative="1" as="geometry" />
        </mxCell>
        <mxCell id="xXbaBgO_mFCdwXO0WdjM-22" value="" style="endArrow=classic;html=1;rounded=0;entryX=0.72;entryY=1;entryDx=0;entryDy=0;entryPerimeter=0;exitX=0.271;exitY=0.138;exitDx=0;exitDy=0;exitPerimeter=0;" edge="1" parent="1" source="xXbaBgO_mFCdwXO0WdjM-20" target="xXbaBgO_mFCdwXO0WdjM-13">
          <mxGeometry width="50" height="50" relative="1" as="geometry">
            <mxPoint x="410" y="580" as="sourcePoint" />
            <mxPoint x="460" y="530" as="targetPoint" />
          </mxGeometry>
        </mxCell>
        <mxCell id="xXbaBgO_mFCdwXO0WdjM-23" style="edgeStyle=none;rounded=0;orthogonalLoop=1;jettySize=auto;html=1;exitX=0;exitY=1;exitDx=0;exitDy=0;entryX=0.586;entryY=0.138;entryDx=0;entryDy=0;entryPerimeter=0;" edge="1" parent="1" source="xXbaBgO_mFCdwXO0WdjM-8" target="xXbaBgO_mFCdwXO0WdjM-10">
          <mxGeometry relative="1" as="geometry" />
        </mxCell>
        <mxCell id="xXbaBgO_mFCdwXO0WdjM-24" value="Loguj" style="ellipse;shape=umlControl;whiteSpace=wrap;html=1;" vertex="1" parent="1">
          <mxGeometry x="530" y="560" width="70" height="80" as="geometry" />
        </mxCell>
        <mxCell id="xXbaBgO_mFCdwXO0WdjM-25" value="" style="endArrow=classic;html=1;rounded=0;exitX=0.853;exitY=0.063;exitDx=0;exitDy=0;exitPerimeter=0;entryX=0.286;entryY=1;entryDx=0;entryDy=0;entryPerimeter=0;" edge="1" parent="1" source="xXbaBgO_mFCdwXO0WdjM-2" target="xXbaBgO_mFCdwXO0WdjM-24">
          <mxGeometry width="50" height="50" relative="1" as="geometry">
            <mxPoint x="410" y="680" as="sourcePoint" />
            <mxPoint x="460" y="630" as="targetPoint" />
          </mxGeometry>
        </mxCell>
        <mxCell id="xXbaBgO_mFCdwXO0WdjM-26" value="" style="endArrow=classic;html=1;rounded=0;entryX=1;entryY=0.5;entryDx=0;entryDy=0;exitX=0.143;exitY=0.25;exitDx=0;exitDy=0;exitPerimeter=0;" edge="1" parent="1" source="xXbaBgO_mFCdwXO0WdjM-24" target="xXbaBgO_mFCdwXO0WdjM-8">
          <mxGeometry width="50" height="50" relative="1" as="geometry">
            <mxPoint x="410" y="680" as="sourcePoint" />
            <mxPoint x="460" y="630" as="targetPoint" />
          </mxGeometry>
        </mxCell>
        <mxCell id="xXbaBgO_mFCdwXO0WdjM-27" value="Administrator" style="shape=umlActor;verticalLabelPosition=bottom;verticalAlign=top;html=1;outlineConnect=0;" vertex="1" parent="1">
          <mxGeometry x="560" y="20" width="30" height="60" as="geometry" />
        </mxCell>
        <mxCell id="xXbaBgO_mFCdwXO0WdjM-28" value="Interfejs administratora" style="shape=umlBoundary;whiteSpace=wrap;html=1;" vertex="1" parent="1">
          <mxGeometry x="600" y="190" width="100" height="80" as="geometry" />
        </mxCell>
        <mxCell id="xXbaBgO_mFCdwXO0WdjM-29" value="Zarządzaj" style="ellipse;shape=umlControl;whiteSpace=wrap;html=1;" vertex="1" parent="1">
          <mxGeometry x="530" y="320" width="70" height="80" as="geometry" />
        </mxCell>
        <mxCell id="xXbaBgO_mFCdwXO0WdjM-30" value="" style="endArrow=classic;html=1;rounded=0;entryX=-0.01;entryY=0.5;entryDx=0;entryDy=0;entryPerimeter=0;exitX=0;exitY=1;exitDx=0;exitDy=0;exitPerimeter=0;" edge="1" parent="1" source="xXbaBgO_mFCdwXO0WdjM-27" target="xXbaBgO_mFCdwXO0WdjM-28">
          <mxGeometry width="50" height="50" relative="1" as="geometry">
            <mxPoint x="410" y="480" as="sourcePoint" />
            <mxPoint x="460" y="430" as="targetPoint" />
          </mxGeometry>
        </mxCell>
        <mxCell id="xXbaBgO_mFCdwXO0WdjM-31" value="" style="endArrow=classic;html=1;rounded=0;exitX=0.01;exitY=0.725;exitDx=0;exitDy=0;exitPerimeter=0;entryX=0.714;entryY=0.175;entryDx=0;entryDy=0;entryPerimeter=0;" edge="1" parent="1" source="xXbaBgO_mFCdwXO0WdjM-28" target="xXbaBgO_mFCdwXO0WdjM-29">
          <mxGeometry width="50" height="50" relative="1" as="geometry">
            <mxPoint x="410" y="480" as="sourcePoint" />
            <mxPoint x="630" y="310" as="targetPoint" />
          </mxGeometry>
        </mxCell>
        <mxCell id="xXbaBgO_mFCdwXO0WdjM-32" value="" style="endArrow=classic;html=1;rounded=0;exitX=0.1;exitY=0.8;exitDx=0;exitDy=0;exitPerimeter=0;entryX=0.5;entryY=0;entryDx=0;entryDy=0;" edge="1" parent="1" source="xXbaBgO_mFCdwXO0WdjM-29" target="xXbaBgO_mFCdwXO0WdjM-8">
          <mxGeometry width="50" height="50" relative="1" as="geometry">
            <mxPoint x="410" y="480" as="sourcePoint" />
            <mxPoint x="460" y="430" as="targetPoint" />
          </mxGeometry>
        </mxCell>
        <mxCell id="xXbaBgO_mFCdwXO0WdjM-33" value="Wysyłanie powiadomień" style="ellipse;shape=umlEntity;whiteSpace=wrap;html=1;" vertex="1" parent="1">
          <mxGeometry x="670" y="620" width="80" height="80" as="geometry" />
        </mxCell>
        <mxCell id="xXbaBgO_mFCdwXO0WdjM-34" value="Wyślij powiadomienie" style="ellipse;shape=umlControl;whiteSpace=wrap;html=1;" vertex="1" parent="1">
          <mxGeometry x="580" y="720" width="90" height="100" as="geometry" />
        </mxCell>
        <mxCell id="xXbaBgO_mFCdwXO0WdjM-35" value="" style="endArrow=classic;html=1;rounded=0;entryX=0.011;entryY=0.68;entryDx=0;entryDy=0;entryPerimeter=0;exitX=0.99;exitY=0.55;exitDx=0;exitDy=0;exitPerimeter=0;" edge="1" parent="1" source="xXbaBgO_mFCdwXO0WdjM-2" target="xXbaBgO_mFCdwXO0WdjM-34">
          <mxGeometry width="50" height="50" relative="1" as="geometry">
            <mxPoint x="410" y="680" as="sourcePoint" />
            <mxPoint x="460" y="630" as="targetPoint" />
          </mxGeometry>
        </mxCell>
        <mxCell id="xXbaBgO_mFCdwXO0WdjM-36" value="" style="endArrow=classic;html=1;rounded=0;entryX=0;entryY=0.5;entryDx=0;entryDy=0;exitX=0.7;exitY=0.13;exitDx=0;exitDy=0;exitPerimeter=0;" edge="1" parent="1" source="xXbaBgO_mFCdwXO0WdjM-34" target="xXbaBgO_mFCdwXO0WdjM-33">
          <mxGeometry width="50" height="50" relative="1" as="geometry">
            <mxPoint x="410" y="680" as="sourcePoint" />
            <mxPoint x="460" y="630" as="targetPoint" />
          </mxGeometry>
        </mxCell>
      </root>
    </mxGraphModel>
  </diagram>
</mxfile>
